HIERARCHY
ROOT root
{
	OFFSET 0.000000 0.000000 0.000000
	CHANNELS 6 Xposition Yposition Zposition Zrotation Yrotation Xrotation
	JOINT lhip
	{
		OFFSET 0.058581 -0.082280 -0.017664
		CHANNELS 3 Zrotation Yrotation Xrotation
		JOINT lknee
		{
			OFFSET 0.043451 -0.386469 0.008037
			CHANNELS 3 Zrotation Yrotation Xrotation
			JOINT lankle
			{
				OFFSET -0.014790 -0.426874 -0.037428
				CHANNELS 3 Zrotation Yrotation Xrotation
				JOINT ltoe
				{
					OFFSET 0.041054 -0.060286 0.122042
					CHANNELS 3 Zrotation Yrotation Xrotation
					End Site
					{
						OFFSET 0.000000 0.000000 0.000000
					}
				}
			}
		}
	}
	JOINT rhip
	{
		OFFSET -0.060310 -0.090513 -0.013543
		CHANNELS 3 Zrotation Yrotation Xrotation
		JOINT rknee
		{
			OFFSET -0.043257 -0.383688 -0.004843
			CHANNELS 3 Zrotation Yrotation Xrotation
			JOINT rankle
			{
				OFFSET 0.019056 -0.420046 -0.034562
				CHANNELS 3 Zrotation Yrotation Xrotation
				JOINT rtoe
				{
					OFFSET -0.034840 -0.062106 0.130323
					CHANNELS 3 Zrotation Yrotation Xrotation
					End Site
					{
						OFFSET 0.000000 0.000000 0.000000
					}
				}
			}
		}
	}
	JOINT lowerback
	{
		OFFSET 0.004439 0.124404 -0.038385
		CHANNELS 3 Zrotation Yrotation Xrotation
		JOINT upperback
		{
			OFFSET 0.004488 0.137956 0.026820
			CHANNELS 3 Zrotation Yrotation Xrotation
			JOINT chest
			{
				OFFSET -0.002265 0.056032 0.002855
				CHANNELS 3 Zrotation Yrotation Xrotation
				JOINT lowerneck
				{
					OFFSET -0.013390 0.211636 -0.033468
					CHANNELS 3 Zrotation Yrotation Xrotation
					JOINT upperneck
					{
						OFFSET 0.010113 0.088937 0.050410
						CHANNELS 3 Zrotation Yrotation Xrotation
						End Site
						{
							OFFSET 0.000000 0.000000 0.000000
						}
					}
				}
				JOINT lclavicle
				{
					OFFSET 0.071702 0.114000 -0.018898
					CHANNELS 3 Zrotation Yrotation Xrotation
					JOINT lshoulder
					{
						OFFSET 0.122921 0.045205 -0.019046
						CHANNELS 3 Zrotation Yrotation Xrotation
						JOINT lelbow
						{
							OFFSET 0.255332 -0.015649 -0.022946
							CHANNELS 3 Zrotation Yrotation Xrotation
							JOINT lwrist
							{
								OFFSET 0.265709 0.012698 -0.007375
								CHANNELS 3 Zrotation Yrotation Xrotation
								End Site
								{
									OFFSET 0.000000 0.000000 0.000000
								}
							}
						}
					}
				}
				JOINT rclavicle
				{
					OFFSET -0.082954 0.112472 -0.023707
					CHANNELS 3 Zrotation Yrotation Xrotation
					JOINT rshoulder
					{
						OFFSET -0.113228 0.046853 -0.008472
						CHANNELS 3 Zrotation Yrotation Xrotation
						JOINT relbow
						{
							OFFSET -0.260127 -0.014369 -0.031269
							CHANNELS 3 Zrotation Yrotation Xrotation
							JOINT rwrist
							{
								OFFSET -0.269108 0.006794 -0.006027
								CHANNELS 3 Zrotation Yrotation Xrotation
								End Site
								{
									OFFSET 0.000000 0.000000 0.000000
								}
							}
						}
					}
				}
			}
		}
	}
}
MOTION
Frames: 16
Frame Time: 0.033333
-1.279783 0.418346 1.038552 138.040496 1.310640 94.428843 6.474950 4.512933 -1.628150 -6.957179 -6.253915 10.516493 2.181233 8.140105 -24.094284 0.000000 -0.000000 0.000000 -2.933604 -2.487595 -30.353284 1.736058 -13.189788 32.883870 5.706788 -9.588903 -12.666141 0.000000 -0.000000 0.000000 -3.730106 -1.626016 14.526680 1.213889 -0.185775 -7.211331 -0.946646 -1.053982 -0.046556 5.805108 -17.466126 -5.867844 4.146954 -28.925216 5.218211 -25.334909 2.325973 1.758462 -42.390967 -12.730539 3.283613 10.867954 -19.770912 -15.323710 4.969134 -7.723596 -12.308164 28.020679 -0.519323 -3.538610 49.447196 1.599238 3.806899 -23.803258 15.398411 -23.699554 2.941815 3.110063 -6.398959 
-1.266271 0.418173 1.036970 135.005775 1.541862 95.294014 6.903660 4.792970 -1.246609 -6.562261 -4.531715 10.065110 2.306815 8.916970 -24.115634 0.000000 -0.000000 0.000000 -1.805068 -2.709799 -30.244866 2.336934 -13.448806 31.527817 4.613490 -8.627662 -10.856439 0.000000 -0.000000 0.000000 -3.682492 -1.865042 13.142945 1.261309 -0.324272 -7.186691 -0.893928 -1.228604 -0.116060 5.538010 -17.316025 -5.700065 4.357224 -27.812176 5.298578 -25.721811 3.064377 1.616102 -43.721267 -13.403957 3.392791 12.096973 -20.887852 -16.495135 4.717654 -7.405793 -13.950859 28.048225 -1.668447 -3.242178 50.525812 0.303842 4.165436 -23.150979 15.183798 -22.087535 4.084642 3.054944 -6.529158 
-1.251074 0.418022 1.035591 131.838420 1.757359 96.196886 7.206659 4.870970 -0.933951 -6.061326 -2.846325 10.066886 2.230670 9.936960 -24.335552 0.000000 -0.000000 0.000000 -0.610754 -2.028951 -30.714966 3.127801 -12.166922 31.107503 4.034713 -7.388938 -9.624808 0.000000 -0.000000 0.000000 -3.759592 -2.241798 11.520529 1.457017 -0.344102 -7.060842 -0.886544 -1.331057 -0.162043 5.380701 -16.901486 -5.608172 4.349458 -26.788369 5.734973 -25.917511 3.893376 1.373774 -45.378086 -13.886843 4.067704 12.858583 -21.870829 -16.593884 4.194325 -7.068288 -14.872793 28.074849 -2.910098 -2.981599 51.733216 -0.736897 4.712120 -22.378737 14.653318 -19.883068 5.787154 2.799298 -6.459684 
-1.234392 0.418179 1.034496 128.636735 2.115552 96.615064 7.540647 4.670242 -0.232687 -5.441066 -1.334001 10.819570 1.629320 11.062754 -24.848806 0.000000 -0.000000 0.000000 0.473975 -0.148156 -30.957820 3.529865 -10.894460 31.689439 3.845632 -6.916016 -9.948286 0.000000 -0.000000 0.000000 -3.767835 -2.896513 10.292721 1.746335 -0.153330 -6.939384 -0.870779 -1.353485 -0.175577 5.241267 -16.146644 -5.567144 4.107095 -25.849770 6.359984 -25.780372 4.699220 1.201067 -47.435598 -14.056643 5.089192 13.285638 -23.031857 -15.660564 2.900045 -7.026964 -15.324058 27.885236 -4.042738 -2.796762 53.161930 -1.651070 5.342173 -21.712792 13.918570 -17.150268 8.137394 2.391558 -6.264578 
-1.216250 0.418481 1.033342 125.285324 2.602252 96.445575 8.063862 4.399425 0.656822 -4.944586 0.318036 12.901098 0.480266 12.016897 -25.376091 0.000000 -0.000000 0.000000 1.774941 2.386684 -30.307806 3.620853 -9.858885 32.299258 3.252464 -6.423568 -11.179406 0.000000 -0.000000 0.000000 -3.598967 -3.619291 9.684070 2.033249 0.053556 -6.909902 -0.891617 -1.225518 -0.184586 5.108459 -15.028751 -5.386204 3.740623 -24.906546 6.978806 -25.583661 5.453688 1.079071 -49.370481 -13.697569 6.073896 13.482076 -24.929921 -13.723505 0.429565 -7.379315 -15.406781 27.578087 -4.945955 -2.550915 54.661643 -2.517019 5.794667 -21.131476 13.377155 -14.202983 10.741307 1.948117 -6.412148 
-1.197163 0.419222 1.031876 121.743825 2.931340 95.853803 8.517193 4.165503 1.219772 -4.589600 2.339960 16.783783 -1.239159 12.499835 -25.358751 0.000000 -0.000000 0.000000 3.193114 4.432755 -28.642508 3.552573 -8.828438 32.325024 2.295878 -5.691287 -12.547797 0.000000 -0.000000 0.000000 -3.325267 -4.043467 9.535004 2.205826 0.069931 -6.821099 -0.999887 -1.088698 -0.200080 4.967006 -13.741721 -5.210217 3.279964 -23.879896 7.698360 -25.703879 6.108364 0.946481 -50.707408 -12.923838 6.818933 13.576857 -27.627805 -11.266095 -3.104492 -8.264667 -15.120050 27.432005 -5.606322 -2.329757 55.830590 -3.321842 6.089347 -20.633165 13.241241 -11.244279 13.803450 1.682827 -6.568574 
-1.178207 0.420444 1.030856 118.163445 2.911258 95.086979 8.718587 3.830971 0.597590 -4.300690 4.629751 23.198258 -3.169880 12.489136 -24.264012 0.000000 -0.000000 0.000000 4.452270 5.331596 -26.370870 3.523921 -7.391271 31.860484 1.333561 -4.560341 -13.513591 0.000000 -0.000000 0.000000 -3.056643 -3.961186 9.653708 2.264942 -0.167339 -6.654028 -1.204728 -1.067471 -0.259174 4.649727 -12.554782 -5.112724 2.847690 -22.642242 8.533352 -26.147052 6.529850 0.702796 -51.561543 -12.051464 7.409849 13.525383 -30.338663 -8.962054 -6.414880 -9.551832 -14.877782 27.464872 -6.099634 -2.236207 56.615906 -4.014132 6.309667 -20.151918 13.451419 -8.568803 16.755350 1.565077 -6.561839 
-1.160100 0.421709 1.031028 114.489311 2.722986 94.441112 8.761709 3.112033 -1.564950 -4.068685 6.469189 31.933906 -4.536383 12.255059 -21.519075 0.000000 -0.000000 0.000000 5.411214 5.609374 -24.184722 3.698193 -5.604004 31.313370 0.399833 -3.274160 -14.123466 0.000000 -0.000000 0.000000 -2.745459 -3.445475 9.629798 2.308659 -0.427373 -6.389818 -1.460136 -1.075943 -0.398904 4.078235 -11.594060 -4.734216 2.604809 -21.190403 9.119957 -26.688922 6.680740 0.497633 -52.391926 -11.340696 8.051186 13.496118 -32.400598 -7.085918 -8.535632 -10.456254 -14.981898 27.484436 -6.459535 -1.940149 57.314309 -4.452186 6.458941 -19.795061 13.953511 -6.320561 18.810285 1.556638 -6.746577 
-1.143181 0.423132 1.032287 110.488702 2.450571 93.850666 8.581241 1.835072 -4.510054 -4.585448 7.171381 41.241970 -4.208551 11.691904 -16.682153 0.000000 -0.000000 0.000000 5.994570 5.841980 -22.249457 4.055028 -3.677196 31.009741 -0.654846 -1.894788 -14.625721 0.000000 -0.000000 0.000000 -2.442417 -2.647367 9.627027 2.308279 -0.429903 -6.049109 -1.672986 -1.001562 -0.586067 3.406285 -10.731214 -4.335318 2.545016 -19.639655 9.368389 -27.158786 6.643221 0.287544 -53.493214 -10.698738 8.830396 13.718658 -34.084844 -5.682476 -9.421997 -10.461423 -15.390172 27.342517 -6.513591 -1.414035 58.106014 -4.650479 6.509545 -19.659540 14.824805 -4.709338 19.870600 1.591711 -7.241611 
-1.126891 0.425493 1.033825 106.257753 2.013116 93.130341 8.101766 0.618982 -7.435867 -7.228986 6.215056 48.937945 -2.489237 9.310885 -12.932050 0.000000 -0.000000 0.000000 6.214525 6.032642 -20.252019 4.449296 -1.534895 30.926076 -1.525133 -0.430568 -15.180784 0.000000 -0.000000 0.000000 -2.218759 -1.839207 9.988337 2.165903 -0.131030 -5.785751 -1.852060 -0.778385 -0.731055 2.887551 -10.001490 -4.022562 2.428801 -18.211817 9.486933 -27.514941 6.468961 0.146117 -54.777525 -10.100121 9.599962 14.226885 -35.564637 -4.715825 -9.406632 -10.308463 -16.458426 27.079202 -6.140061 -0.840940 58.920125 -4.573208 6.612983 -19.551700 15.694426 -3.741479 20.226193 1.822812 -8.037670 
-1.110688 0.429142 1.035229 102.283846 1.556992 92.184803 7.448363 -0.152778 -10.238831 -10.593636 5.036021 54.288154 -2.649512 6.126168 -13.004874 0.000000 -0.000000 0.000000 6.397911 6.166355 -17.985196 4.560803 0.730146 30.932880 -1.834739 0.860626 -15.726330 0.000000 -0.000000 0.000000 -1.858602 -1.085651 11.018968 1.963378 0.153213 -5.802997 -2.066013 -0.464564 -0.697915 2.595798 -9.261067 -4.008136 2.208066 -17.222469 9.593067 -27.870638 6.062185 -0.113917 -55.963406 -9.500132 10.257315 14.582513 -36.601173 -4.004419 -8.474522 -10.220254 -17.502719 26.867014 -5.448792 -0.612344 59.480748 -4.294860 6.996061 -19.270368 16.465283 -2.861399 19.970904 2.115810 -8.605572 
-1.093791 0.433659 1.036438 98.454574 0.951324 91.354997 6.597508 -1.030000 -13.207450 -11.961667 5.544620 57.419832 -2.967091 4.958590 -13.316278 0.000000 -0.000000 0.000000 6.450232 6.455440 -15.785935 4.399422 3.194214 31.019325 -2.077576 1.804303 -16.429265 0.000000 -0.000000 0.000000 -1.629533 -0.196670 11.999688 1.765611 0.330286 -5.874544 -2.277300 -0.126723 -0.593503 2.351016 -8.507616 -3.991527 1.999608 -16.445621 9.790305 -28.199735 5.700583 -0.389016 -56.888257 -8.943839 10.927866 14.651445 -37.111938 -3.397229 -7.653763 -10.480234 -18.172122 26.819360 -4.700310 -0.522743 59.761741 -3.710837 7.778131 -18.952564 17.186824 -1.925519 19.375959 2.420665 -8.676427 
-1.076389 0.438345 1.037540 94.738658 0.208029 90.822066 5.896436 -2.395925 -16.332749 -11.269053 7.272247 58.307970 -2.516697 5.535764 -13.613345 0.000000 -0.000000 0.000000 6.268845 6.883418 -13.987052 4.215292 5.831023 31.391175 -2.275587 2.507587 -17.313838 0.000000 -0.000000 0.000000 -1.589780 0.908378 12.701314 1.583868 0.404103 -6.001053 -2.422353 0.164105 -0.510780 2.069216 -7.880027 -3.814443 1.809641 -15.742726 9.932628 -28.377017 5.446957 -0.489986 -57.681834 -8.338306 11.589814 14.693575 -37.345865 -2.861568 -7.159866 -10.642409 -18.518194 26.786038 -3.958015 -0.362211 59.946710 -2.805481 8.841877 -18.598413 18.033120 -1.047007 18.540107 2.590736 -8.481182 
-1.058915 0.443063 1.038199 91.241968 -0.498190 90.561122 5.579388 -3.656678 -19.533132 -9.477035 8.973760 57.238703 -1.638896 6.866411 -14.102227 0.000000 -0.000000 0.000000 5.928627 7.230269 -12.618447 4.192709 8.460945 32.055981 -2.252983 3.076315 -18.225034 0.000000 -0.000000 0.000000 -1.590912 2.018505 13.291005 1.405404 0.505795 -6.263379 -2.483955 0.462257 -0.393144 1.777763 -7.312207 -3.757930 1.561013 -15.111266 10.178274 -28.409101 5.326534 -0.493843 -58.339076 -7.736132 12.159559 14.496349 -37.406526 -2.171652 -6.812999 -10.650936 -18.780186 26.745697 -3.211092 -0.200034 59.975426 -1.706273 10.065692 -17.985194 19.051009 -0.099372 17.483515 2.792980 -8.072046 
-1.041128 0.448017 1.037922 88.030360 -1.095389 90.419052 5.576181 -4.504304 -22.491162 -7.363957 10.170390 54.418900 -0.675014 8.391966 -14.529331 0.000000 -0.000000 0.000000 5.502755 7.404211 -11.403488 4.258809 10.892654 32.840503 -2.206454 3.667978 -19.185673 0.000000 -0.000000 0.000000 -1.562673 3.014477 13.869802 1.203709 0.699939 -6.594860 -2.458162 0.767761 -0.222626 1.527058 -6.739146 -3.861924 1.209995 -14.615579 10.553527 -28.364555 5.281568 -0.516332 -58.787658 -7.175146 12.612262 13.945290 -37.162605 -1.264834 -6.597589 -10.742953 -18.981324 26.687963 -2.410083 -0.088812 59.822910 -0.482937 11.362705 -16.978032 20.115130 1.067221 16.284776 3.220861 -7.450291 
-1.022401 0.453254 1.036459 85.265573 -1.561731 90.311141 5.698227 -4.977224 -24.903931 -5.518185 10.705088 49.823330 0.189921 9.830579 -14.783842 0.000000 -0.000000 0.000000 5.031181 7.427397 -10.179195 4.403448 12.999128 33.661344 -2.186770 4.181443 -20.257886 0.000000 -0.000000 0.000000 -1.508326 3.827025 14.371132 1.021183 0.926441 -6.840851 -2.355731 1.051678 -0.031037 1.370302 -6.129841 -4.080284 0.800330 -14.323669 10.975565 -28.292508 5.281262 -0.565133 -59.010596 -6.579815 12.962186 13.188540 -36.661637 -0.312753 -6.584825 -10.744178 -19.005687 26.677516 -1.561779 -0.037094 59.452322 0.762768 12.665029 -15.647492 21.309028 2.531399 15.350025 3.707453 -6.671417 
